{
    "asset": {
        "generator": "FBX2glTF v0.13.0",
        "version": "2.0"
    },
    "scene": 0,
    "buffers": [
        {
            "byteLength": 292064,
            "uri": "data:application/octet-stream;base64,"
        }
    ],
    "bufferViews": [
        {
            "buffer": 0,
            "byteLength": 47808,
            "byteOffset": 0,
            "target": 34963
        },
        {
            "buffer": 0,
            "byteLength": 51576,
            "byteOffset": 47808,
            "target": 34962
        },
        {
            "buffer": 0,
            "byteLength": 51576,
            "byteOffset": 99384,
            "target": 34962
        },
        {
            "buffer": 0,
            "byteLength": 34384,
            "byteOffset": 150960,
            "target": 34962
        },
        {
            "buffer": 0,
            "byteLength": 12672,
            "byteOffset": 185344,
            "target": 34963
        },
        {
            "buffer": 0,
            "byteLength": 14784,
            "byteOffset": 198016,
            "target": 34962
        },
        {
            "buffer": 0,
            "byteLength": 14784,
            "byteOffset": 212800,
            "target": 34962
        },
        {
            "buffer": 0,
            "byteLength": 9856,
            "byteOffset": 227584,
            "target": 34962
        },
        {
            "buffer": 0,
            "byteLength": 10080,
            "byteOffset": 237440,
            "target": 34963
        },
        {
            "buffer": 0,
            "byteLength": 16704,
            "byteOffset": 247520,
            "target": 34962
        },
        {
            "buffer": 0,
            "byteLength": 16704,
            "byteOffset": 264224,
            "target": 34962
        },
        {
            "buffer": 0,
            "byteLength": 11136,
            "byteOffset": 280928,
            "target": 34962
        }
    ],
    "scenes": [
        {
            "name": "Root Scene",
            "nodes": [
                0
            ]
        }
    ],
    "accessors": [
        {
            "componentType": 5123,
            "type": "SCALAR",
            "count": 23904,
            "bufferView": 0,
            "byteOffset": 0
        },
        {
            "componentType": 5126,
            "type": "VEC3",
            "count": 4298,
            "bufferView": 1,
            "byteOffset": 0,
            "min": [
                -0.558971643447876,
                -0.752937972545624,
                -0.164217695593834
            ],
            "max": [
                0.288490474224091,
                3.63932418823242,
                0.164217576384544
            ]
        },
        {
            "componentType": 5126,
            "type": "VEC3",
            "count": 4298,
            "bufferView": 2,
            "byteOffset": 0
        },
        {
            "componentType": 5126,
            "type": "VEC2",
            "count": 4298,
            "bufferView": 3,
            "byteOffset": 0
        },
        {
            "componentType": 5123,
            "type": "SCALAR",
            "count": 6336,
            "bufferView": 4,
            "byteOffset": 0
        },
        {
            "componentType": 5126,
            "type": "VEC3",
            "count": 1232,
            "bufferView": 5,
            "byteOffset": 0,
            "min": [
                -1.66334283351898,
                2.96244645118713,
                -0.123575396835804
            ],
            "max": [
                0.669150829315186,
                3.63688611984253,
                0.123575761914253
            ]
        },
        {
            "componentType": 5126,
            "type": "VEC3",
            "count": 1232,
            "bufferView": 6,
            "byteOffset": 0
        },
        {
            "componentType": 5126,
            "type": "VEC2",
            "count": 1232,
            "bufferView": 7,
            "byteOffset": 0
        },
        {
            "componentType": 5123,
            "type": "SCALAR",
            "count": 5040,
            "bufferView": 8,
            "byteOffset": 0
        },
        {
            "componentType": 5126,
            "type": "VEC3",
            "count": 1392,
            "bufferView": 9,
            "byteOffset": 0,
            "min": [
                -2.10207271575928,
                2.87119746208191,
                -0.123575396835804
            ],
            "max": [
                0.903325855731964,
                3.67140460014343,
                0.123575761914253
            ]
        },
        {
            "componentType": 5126,
            "type": "VEC3",
            "count": 1392,
            "bufferView": 10,
            "byteOffset": 0
        },
        {
            "componentType": 5126,
            "type": "VEC2",
            "count": 1392,
            "bufferView": 11,
            "byteOffset": 0
        }
    ],
    "samplers": [
        {}
    ],
    "materials": [
        {
            "name": "DefaultMaterial",
            "alphaMode": "OPAQUE",
            "doubleSided": false,
            "extras": {
                "fromFBX": {
                    "shadingModel": "Lambert",
                    "isTruePBR": false
                }
            },
            "pbrMetallicRoughness": {
                "baseColorFactor": [
                    0.5,
                    0.5,
                    0.5,
                    1.0
                ],
                "metallicFactor": 0.200000002980232,
                "roughnessFactor": 0.800000011920929
            }
        }
    ],
    "meshes": [
        {
            "name": "Ax handle_02",
            "primitives": [
                {
                    "material": 0,
                    "mode": 4,
                    "attributes": {
                        "NORMAL": 2,
                        "POSITION": 1,
                        "TEXCOORD_0": 3
                    },
                    "indices": 0
                }
            ]
        },
        {
            "name": "Pickaxe_02(Lezvie)",
            "primitives": [
                {
                    "material": 0,
                    "mode": 4,
                    "attributes": {
                        "NORMAL": 6,
                        "POSITION": 5,
                        "TEXCOORD_0": 7
                    },
                    "indices": 4
                }
            ]
        },
        {
            "name": "Pickaxe_02(Lezvie_Fire)",
            "primitives": [
                {
                    "material": 0,
                    "mode": 4,
                    "attributes": {
                        "NORMAL": 10,
                        "POSITION": 9,
                        "TEXCOORD_0": 11
                    },
                    "indices": 8
                }
            ]
        }
    ],
    "nodes": [
        {
            "name": "RootNode",
            "translation": [
                0.0,
                0.0,
                0.0
            ],
            "rotation": [
                0.0,
                0.0,
                0.0,
                1.0
            ],
            "scale": [
                1.0,
                1.0,
                1.0
            ],
            "children": [
                1,
                2,
                3
            ]
        },
        {
            "name": "Ax handle_02",
            "translation": [
                0.0,
                0.0,
                0.0
            ],
            "rotation": [
                0.0,
                0.0,
                0.0,
                1.0
            ],
            "scale": [
                1.0,
                1.0,
                1.0
            ],
            "mesh": 0
        },
        {
            "name": "Pickaxe_02(Lezvie)",
            "translation": [
                0.0,
                0.0,
                0.0
            ],
            "rotation": [
                0.0,
                0.0,
                0.0,
                1.0
            ],
            "scale": [
                1.0,
                1.0,
                1.0
            ],
            "mesh": 1
        },
        {
            "name": "Pickaxe_02(Lezvie_Fire)",
            "translation": [
                0.0,
                0.0,
                0.0
            ],
            "rotation": [
                0.0,
                0.0,
                0.0,
                1.0
            ],
            "scale": [
                1.0,
                1.0,
                1.0
            ],
            "mesh": 2
        }
    ]
}